<?xml version="1.0" standalone="no"?>
<!DOCTYPE svg PUBLIC "-//W3C//DTD SVG 20010904//EN"
 "http://www.w3.org/TR/2001/REC-SVG-20010904/DTD/svg10.dtd">
<svg version="1.0" xmlns="http://www.w3.org/2000/svg"
 width="157.000000pt" height="157.000000pt" viewBox="0 0 157.000000 157.000000"
 preserveAspectRatio="xMidYMid meet">
<metadata>
Created by potrace 1.11, written by Peter Selinger 2001-2013
</metadata>
<g transform="translate(0.000000,157.000000) scale(0.100000,-0.100000)"
fill="#000000" stroke="none">
<path d="M617 1464 c-1 -2 -15 -5 -30 -8 -175 -31 -369 -178 -455 -343 -95
-184 -109 -352 -45 -545 79 -239 288 -414 543 -454 95 -15 163 -10 295 19 37
9 134 56 182 88 162 110 276 293 299 476 3 20 6 39 8 40 2 2 25 -7 50 -21 26
-14 53 -23 60 -20 16 6 28 58 15 62 -5 2 -7 8 -3 13 3 5 0 9 -6 9 -6 0 -9 4
-5 9 5 9 -32 27 -47 23 -5 -1 -8 3 -8 9 0 6 -6 9 -13 6 -23 -9 -50 21 -53 58
-2 42 -38 159 -62 201 -9 18 -25 48 -36 68 -24 47 -127 153 -189 195 -119 81
-251 120 -398 118 -55 0 -101 -2 -102 -3z"/>
</g>
</svg>
